<?xml version="1.0" standalone="no"?>
<!DOCTYPE svg PUBLIC "-//W3C//DTD SVG 20010904//EN"
 "http://www.w3.org/TR/2001/REC-SVG-20010904/DTD/svg10.dtd">
<svg version="1.0" xmlns="http://www.w3.org/2000/svg"
 width="16.000000pt" height="16.000000pt" viewBox="0 0 16.000000 16.000000"
 preserveAspectRatio="xMidYMid meet">
<metadata>
Created by potrace 1.11, written by Peter Selinger 2001-2013
</metadata>
<g transform="translate(0.000000,16.000000) scale(0.003232,-0.003232)"
fill="#000000" stroke="none">
<path d="M864 4931 c-49 -22 -88 -70 -103 -126 -7 -25 -11 -151 -11 -327 l0
-288 -287 0 c-305 0 -345 -5 -401 -46 -46 -36 -62 -73 -62 -149 0 -70 13 -106
52 -142 53 -50 76 -53 398 -53 l300 0 0 -570 0 -570 -307 0 c-291 0 -309 -1
-350 -21 -24 -12 -55 -37 -68 -57 -21 -31 -25 -48 -25 -112 0 -64 4 -81 25
-112 13 -20 44 -45 68 -57 41 -20 59 -21 350 -21 l307 0 0 -570 0 -570 -300 0
c-322 0 -345 -3 -398 -53 -39 -36 -52 -72 -52 -142 0 -76 16 -113 62 -149 56
-41 96 -46 401 -46 l287 0 0 -287 c0 -305 5 -345 46 -401 36 -46 73 -62 149
-62 94 0 146 32 180 112 13 33 15 286 15 2360 0 2237 -1 2324 -19 2363 -46 99
-158 141 -257 96z"/>
<path d="M2408 4941 c-47 -15 -85 -49 -107 -94 -20 -41 -21 -60 -21 -350 l0
-307 -515 0 -515 0 0 -195 0 -195 515 0 515 0 0 -570 0 -570 -515 0 -515 0 0
-190 0 -190 515 0 515 0 0 -570 0 -570 -515 0 -515 0 0 -195 0 -195 515 0 515
0 0 -307 c0 -291 1 -309 21 -350 12 -24 37 -55 57 -68 31 -21 48 -25 111 -25
64 0 80 4 113 26 20 14 46 45 58 68 20 42 20 49 20 2376 l0 2334 -21 44 c-28
58 -81 92 -150 97 -30 3 -66 1 -81 -4z"/>
<path d="M3915 4931 c-48 -22 -79 -54 -100 -103 -12 -31 -15 -89 -15 -338 l0
-300 -515 0 -515 0 0 -195 0 -195 515 0 515 0 0 -570 0 -570 -515 0 -515 0 0
-190 0 -190 515 0 515 0 0 -570 0 -570 -515 0 -515 0 0 -195 0 -195 515 0 515
0 0 -300 c0 -249 3 -307 15 -338 19 -43 50 -79 87 -98 36 -19 151 -18 188 1
38 20 75 70 89 120 15 57 15 4613 0 4670 -32 117 -155 176 -264 126z"/>
<path d="M4270 3995 l0 -195 260 0 c213 0 267 3 298 15 49 21 81 52 103 100
50 109 -9 232 -126 264 -24 6 -140 11 -287 11 l-248 0 0 -195z"/>
<path d="M4270 2470 l0 -190 267 0 c305 0 326 4 379 82 25 35 29 51 29 108 0
83 -31 137 -97 169 -42 20 -60 21 -311 21 l-267 0 0 -190z"/>
<path d="M4270 945 l0 -195 248 0 c147 0 263 5 287 11 180 49 195 292 23 364
-31 12 -85 15 -298 15 l-260 0 0 -195z"/>
</g>
</svg>
