<?xml version="1.0" standalone="no"?>
<!DOCTYPE svg PUBLIC "-//W3C//DTD SVG 20010904//EN"
 "http://www.w3.org/TR/2001/REC-SVG-20010904/DTD/svg10.dtd">
<svg version="1.0" xmlns="http://www.w3.org/2000/svg"
 width="16.000000pt" height="16.000000pt" viewBox="0 0 16.000000 16.000000"
 preserveAspectRatio="xMidYMid meet">
<metadata>
Created by potrace 1.11, written by Peter Selinger 2001-2013
</metadata>
<g transform="translate(0.000000,16.000000) scale(0.002952,-0.002952)"
fill="#000000" stroke="none">
<path d="M1980 5414 c-9 -3 -31 -24 -50 -48 -97 -121 -265 -185 -411 -158 -87
17 -66 48 -309 -468 -45 -96 -104 -220 -130 -275 -26 -55 -68 -143 -93 -195
-24 -52 -70 -149 -102 -215 -32 -66 -74 -156 -95 -200 -21 -44 -63 -134 -95
-200 -31 -66 -74 -156 -95 -200 -21 -44 -102 -215 -180 -380 -78 -165 -160
-336 -180 -380 -21 -44 -72 -152 -114 -239 -42 -87 -76 -171 -76 -185 0 -19
15 -41 51 -75 64 -61 105 -125 126 -196 18 -61 21 -166 6 -220 -16 -58 -3 -76
94 -121 181 -84 193 -85 237 -19 28 42 67 59 118 52 61 -9 102 -88 79 -153
-20 -58 10 -85 190 -167 74 -34 143 -62 151 -62 16 0 68 47 68 62 0 5 17 16
37 24 56 24 114 11 153 -33 36 -41 35 -65 -7 -142 -14 -25 -31 -57 -39 -70
-17 -31 -9 -46 65 -119 123 -122 138 -133 168 -121 16 6 36 17 45 26 43 39
120 29 160 -21 26 -32 23 -93 -7 -136 -39 -56 -24 -84 112 -217 62 -62 117
-113 121 -114 4 0 14 -2 23 -4 9 -1 29 8 45 22 65 57 132 62 179 13 39 -40 38
-93 -3 -155 -18 -27 -32 -58 -32 -70 0 -14 38 -58 109 -128 119 -118 127 -121
187 -73 19 15 58 38 86 51 47 22 64 24 158 21 104 -3 183 -21 259 -60 16 -9
40 -16 51 -16 15 0 91 68 233 209 117 115 282 278 369 363 155 152 876 862
1411 1389 309 304 288 274 246 367 -53 117 -68 278 -35 367 10 25 34 67 53 92
20 26 36 57 36 70 0 16 -31 53 -102 122 -56 55 -111 103 -122 106 -14 5 -37
-3 -72 -25 -71 -45 -118 -47 -161 -9 -55 48 -54 110 3 174 20 23 29 42 26 57
-3 12 -56 74 -118 136 -132 132 -159 145 -223 106 -59 -36 -108 -32 -151 11
-33 33 -35 39 -30 82 2 25 9 48 14 52 16 11 43 55 43 70 0 17 -187 209 -212
217 -11 3 -40 -6 -71 -24 -148 -83 -294 -89 -439 -19 -90 43 -79 47 -200 -71
-61 -59 -109 -102 -107 -97 2 6 39 81 82 168 109 222 105 200 54 255 -53 57
-97 115 -124 163 -53 93 -70 220 -39 294 21 49 20 78 -1 97 -10 9 -73 41 -141
72 -141 63 -147 63 -205 -8 -46 -55 -93 -72 -143 -51 -59 24 -81 82 -58 149
29 80 29 80 -131 156 -79 38 -159 71 -176 74 -38 6 -77 -10 -85 -36 -3 -11
-20 -28 -37 -39 -90 -54 -198 22 -168 120 15 53 14 75 -6 93 -17 15 -245 119
-254 117 -2 -1 -11 -3 -19 -5z m110 -158 c45 -24 45 -24 46 -79 1 -52 27 -122
57 -151 91 -88 226 -96 316 -19 l42 35 93 -42 92 -43 -6 -42 c-14 -95 35 -187
126 -231 47 -23 64 -26 117 -22 67 6 135 39 159 78 17 26 23 25 96 -10 58 -28
61 -31 52 -55 -18 -46 -4 -204 23 -271 29 -72 82 -157 133 -214 l37 -41 -30
-62 c-16 -34 -86 -175 -156 -314 l-126 -251 -183 -180 c-101 -100 -184 -179
-185 -178 -2 1 90 204 203 450 l206 447 -13 36 c-15 38 -16 39 -304 169 -33
15 -103 47 -155 72 -52 24 -113 52 -135 62 -22 9 -186 85 -365 167 -539 249
-547 253 -576 253 -37 0 -61 -32 -129 -174 -115 -241 -167 -350 -202 -426 -19
-41 -59 -126 -89 -188 -30 -61 -134 -282 -233 -490 -98 -207 -207 -435 -241
-507 -229 -480 -290 -615 -290 -642 0 -18 9 -37 22 -50 13 -11 212 -107 443
-213 231 -106 450 -207 487 -224 l68 -31 -85 -84 c-47 -47 -85 -92 -85 -100 0
-9 10 -34 21 -56 12 -22 30 -63 39 -91 l18 -51 -57 17 c-31 10 -75 16 -99 14
-52 -4 -120 -33 -145 -62 l-18 -20 -98 45 -97 45 2 47 c3 63 -31 137 -81 178
-88 73 -225 68 -305 -10 -24 -24 -26 -24 -65 -9 -78 30 -80 33 -77 119 2 43
-2 103 -8 133 -15 79 -69 186 -125 248 l-47 52 17 38 c10 20 56 115 102 211
45 95 83 175 83 176 0 2 38 82 85 180 47 97 85 178 85 180 0 1 35 76 79 166
43 90 137 288 209 439 123 260 162 344 283 598 72 151 135 284 179 377 21 44
69 145 107 225 38 80 75 159 83 176 l13 31 87 0 c144 1 268 49 372 143 29 27
60 49 68 49 8 0 35 -10 60 -23z m-382 -576 c17 -9 64 -31 282 -130 58 -26 139
-63 180 -83 41 -19 107 -49 145 -67 39 -18 102 -47 140 -65 39 -18 93 -43 120
-55 197 -89 481 -222 486 -228 4 -4 -5 -32 -20 -62 -14 -30 -69 -147 -120
-260 -52 -113 -112 -242 -133 -288 -21 -45 -85 -182 -141 -305 l-103 -222
-269 -266 c-149 -147 -324 -319 -390 -384 -66 -64 -164 -160 -217 -212 -74
-74 -100 -94 -110 -86 -7 6 -74 39 -148 73 -74 34 -164 76 -200 92 -36 17
-139 64 -230 106 -295 134 -345 157 -364 168 -17 11 -17 14 12 75 94 199 124
265 172 364 85 177 160 335 197 415 20 41 60 127 90 190 31 63 93 194 138 290
46 96 113 238 150 315 37 77 80 167 95 200 15 33 60 128 100 210 39 83 79 167
87 188 16 39 23 43 51 27z m2567 -852 l42 -42 -19 -50 c-38 -100 2 -212 96
-271 43 -26 59 -30 120 -30 49 1 79 6 96 17 25 17 26 16 98 -53 39 -38 72 -72
72 -75 0 -3 -9 -23 -21 -46 -57 -111 0 -254 121 -306 50 -21 132 -18 186 9
l46 22 50 -50 50 -50 -33 -62 c-70 -133 -69 -318 4 -490 l14 -33 -229 -227
c-126 -124 -305 -300 -398 -391 -92 -91 -385 -379 -650 -640 -265 -261 -546
-537 -623 -613 -78 -76 -172 -168 -208 -203 l-66 -65 -49 19 c-88 35 -181 51
-277 47 -107 -3 -170 -21 -238 -67 l-27 -18 -52 51 c-28 27 -50 53 -48 57 59
112 54 206 -15 288 -44 52 -110 77 -187 71 -37 -2 -79 -12 -97 -23 l-33 -19
-72 72 -72 72 17 36 c47 99 3 222 -103 288 -43 27 -159 30 -205 6 -30 -15 -30
-15 -76 29 l-46 45 27 61 c38 85 50 146 46 251 -3 84 -24 166 -56 215 -7 11
20 43 119 140 107 104 472 463 1301 1280 345 339 750 738 771 757 l24 22 65
-23 c36 -13 83 -27 105 -31 47 -7 149 -8 186 0 43 8 153 44 169 55 23 15 30
13 75 -32z"/>
<path d="M1940 3809 c-16 -6 -61 -61 -125 -154 l-100 -144 -171 1 c-183 0
-209 -3 -224 -32 -15 -28 -6 -43 107 -188 57 -74 103 -137 103 -142 0 -4 -18
-62 -39 -128 -74 -225 -73 -220 -51 -242 11 -11 30 -20 41 -20 12 0 95 25 184
56 l162 56 147 -106 c150 -108 171 -116 205 -81 13 13 15 44 13 195 l-4 179
68 48 c163 116 228 169 230 187 7 50 -4 55 -323 147 -24 7 -45 19 -48 28 -3 9
-29 85 -58 170 -56 165 -71 187 -117 170z m45 -327 c42 -129 35 -123 190 -167
55 -15 103 -31 108 -35 4 -3 -40 -39 -98 -80 -67 -46 -107 -81 -111 -96 -3
-12 -4 -75 -2 -138 1 -64 -1 -116 -6 -116 -5 0 -53 32 -107 70 -54 39 -108 71
-121 71 -13 1 -76 -17 -140 -39 -65 -22 -118 -40 -118 -38 0 1 18 56 40 121
23 69 37 128 34 140 -3 11 -39 64 -80 117 -41 53 -74 98 -74 100 0 2 57 3 128
3 70 -1 134 2 143 6 8 4 49 55 89 114 48 68 76 101 81 93 4 -7 24 -64 44 -126z"/>
<path d="M3557 3458 c-58 -57 -331 -326 -607 -598 -276 -272 -557 -548 -624
-614 -357 -349 -557 -552 -562 -572 -3 -13 -3 -33 1 -45 4 -13 79 -93 166
-179 86 -85 345 -339 574 -565 229 -226 426 -415 438 -421 12 -6 28 -9 35 -8
6 1 18 2 25 3 14 1 110 94 813 787 1089 1074 1094 1078 1098 1104 2 14 -2 36
-10 50 -7 14 -145 154 -306 312 -161 158 -390 383 -509 500 -364 358 -353 348
-392 348 -30 0 -47 -13 -140 -102z m362 -242 c119 -118 362 -357 540 -533
l324 -319 -259 -256 c-142 -141 -324 -320 -404 -398 -80 -78 -367 -361 -638
-629 -272 -267 -497 -487 -501 -489 -8 -3 -43 31 -675 652 l-416 410 124 120
c68 67 353 347 632 622 873 860 1049 1033 1053 1034 2 0 101 -96 220 -214z"/>
<path d="M3611 2506 c-21 -11 -140 -92 -237 -160 l-50 -36 -70 24 c-38 14
-113 40 -166 60 -53 19 -104 33 -112 32 -31 -4 -56 -38 -50 -65 8 -34 83 -273
99 -312 4 -10 -31 -61 -105 -153 -114 -143 -129 -177 -94 -207 18 -15 42 -17
245 -18 l135 -1 103 -150 c98 -144 103 -150 136 -150 43 0 48 8 114 205 27 81
51 148 53 149 2 2 73 22 158 46 199 54 210 60 210 108 0 18 -32 46 -149 133
l-149 110 3 67 c9 180 7 292 -4 306 -17 20 -46 25 -70 12z m-43 -301 c-5 -157
-14 -139 120 -235 51 -36 92 -68 92 -71 0 -3 -28 -13 -62 -23 -35 -10 -94 -28
-133 -39 l-69 -22 -42 -125 c-24 -69 -46 -124 -49 -123 -4 1 -34 41 -67 90
-94 138 -77 129 -230 131 -73 2 -133 4 -135 5 -1 2 34 48 77 102 52 65 80 109
80 125 0 14 -16 74 -36 133 -20 60 -34 110 -31 113 2 2 61 -16 131 -40 l126
-45 98 66 c53 36 104 72 112 79 8 8 16 14 18 14 2 0 2 -61 0 -135z"/>
</g>
</svg>
